<svg xmlns="http://www.w3.org/2000/svg" xmlns:xlink="http://www.w3.org/1999/xlink" width="500" zoomAndPan="magnify" viewBox="0 0 375 374.999991" height="500" preserveAspectRatio="xMidYMid meet" version="1.2"><defs><clipPath id="2e5f6257f7"><path d="M 59 19.246094 L 326 19.246094 L 326 353 L 59 353 Z M 59 19.246094 "/></clipPath></defs><g id="fe093f9a40"><g clip-rule="nonzero" clip-path="url(#2e5f6257f7)"><path style=" stroke:none;fill-rule:nonzero;fill:#f5f5ef;fill-opacity:1;" d="M 210.074219 114.199219 C 244.097656 114.199219 317.191406 125.539062 325.4375 223.582031 C 333.6875 321.625 224.40625 355.75 161.207031 351.9375 C 98.011719 348.121094 41.308594 276.46875 64.917969 178.425781 C 88.527344 80.382812 210.074219 114.199219 210.074219 114.199219 Z M 187.601562 96.566406 C 188.324219 95.226562 188.527344 93.679688 188.117188 92.238281 C 187.910156 91.308594 187.496094 90.484375 186.878906 89.765625 C 184.300781 86.464844 160.898438 56.980469 142.339844 42.855469 C 125.742188 30.175781 92.445312 21.71875 78.835938 19.660156 C 76.359375 19.246094 73.988281 20.070312 72.238281 21.824219 C 70.792969 23.371094 70.277344 25.535156 70.792969 27.597656 C 76.667969 51.101562 98.835938 69.246094 108.113281 75.949219 C 136.570312 96.363281 168.734375 99.765625 181.207031 100.28125 C 183.890625 100.382812 186.363281 98.9375 187.601562 96.566406 Z M 187.601562 96.566406 "/></g><path style=" stroke:none;fill-rule:nonzero;fill:#e18b22;fill-opacity:1;" d="M 251.109375 178.011719 L 250.28125 175.539062 C 249.25 172.445312 244.199219 164.921875 242.242188 162.34375 L 240.796875 160.28125 L 245.023438 157.292969 L 246.570312 159.351562 C 247.292969 160.382812 253.789062 169.558594 255.230469 173.992188 L 256.054688 176.46875 Z M 246.984375 218.425781 L 246.160156 215.953125 C 245.128906 212.859375 240.078125 205.332031 238.117188 202.757812 L 236.570312 200.695312 L 240.796875 197.703125 L 242.34375 199.765625 C 243.066406 200.796875 249.5625 209.972656 251.003906 214.40625 L 251.828125 216.878906 Z M 289.148438 204.199219 L 288.738281 201.621094 C 288.117188 198.425781 284.097656 190.28125 282.65625 187.394531 L 281.417969 185.128906 L 285.953125 182.757812 L 287.089844 185.023438 C 287.707031 186.15625 292.859375 196.160156 293.6875 200.695312 L 294.097656 203.273438 Z M 279.457031 248.324219 L 278.941406 245.746094 C 278.324219 242.550781 274.40625 234.40625 272.859375 231.519531 L 271.625 229.253906 L 276.160156 226.878906 L 277.292969 229.148438 C 277.914062 230.28125 283.066406 240.28125 283.890625 244.820312 L 284.304688 247.398438 Z M 213.582031 241.828125 L 213.167969 239.253906 C 212.550781 236.054688 208.632812 227.910156 207.085938 225.023438 L 205.847656 222.757812 L 210.386719 220.386719 L 211.519531 222.652344 C 212.136719 223.789062 217.1875 233.789062 218.015625 238.324219 L 218.425781 240.902344 Z M 203.683594 281.109375 L 203.269531 278.53125 C 202.652344 275.335938 198.734375 267.191406 197.1875 264.304688 L 196.054688 262.035156 L 200.589844 259.664062 L 201.726562 261.933594 C 202.34375 263.066406 207.394531 273.066406 208.21875 277.605469 L 208.632812 280.179688 Z M 245.335938 272.242188 L 245.230469 269.664062 C 245.128906 266.367188 242.34375 257.707031 241.210938 254.714844 L 240.386719 252.242188 L 245.230469 250.59375 L 246.054688 253.066406 C 246.46875 254.304688 250.179688 264.820312 250.28125 269.5625 L 250.386719 272.140625 Z M 231.519531 315.441406 L 231.417969 312.863281 C 231.3125 309.5625 228.53125 301.007812 227.394531 297.914062 L 226.570312 295.4375 L 231.417969 293.6875 L 232.242188 296.160156 C 232.652344 297.398438 236.363281 307.914062 236.570312 312.65625 L 236.675781 315.234375 Z M 270.488281 287.914062 L 270.386719 285.335938 C 270.285156 282.035156 267.5 273.375 266.367188 270.386719 L 265.539062 267.914062 L 270.386719 266.160156 L 271.210938 268.632812 C 271.625 269.871094 275.335938 280.386719 275.4375 285.128906 L 275.542969 287.707031 Z M 302.449219 248.324219 L 302.035156 245.746094 C 301.417969 242.550781 297.5 234.40625 295.953125 231.519531 L 294.820312 229.253906 L 299.355469 226.878906 L 300.59375 229.148438 C 301.210938 230.28125 306.367188 240.28125 307.191406 244.820312 L 307.605469 247.398438 Z M 302.449219 248.324219 "/></g></svg>